<svg width="182" height="55" viewBox="0 0 182 55" fill="none" xmlns="http://www.w3.org/2000/svg">
<path d="M32.24 10.61H39.26V44H32.24V10.61ZM45.7752 19.79H52.7952V44H45.7752V19.79ZM49.2852 16.415C47.9952 16.415 46.9452 16.04 46.1352 15.29C45.3252 14.54 44.9202 13.61 44.9202 12.5C44.9202 11.39 45.3252 10.46 46.1352 9.71C46.9452 8.96 47.9952 8.585 49.2852 8.585C50.5752 8.585 51.6252 8.945 52.4352 9.665C53.2452 10.385 53.6502 11.285 53.6502 12.365C53.6502 13.535 53.2452 14.51 52.4352 15.29C51.6252 16.04 50.5752 16.415 49.2852 16.415ZM73.6203 19.43C75.8703 19.43 77.9103 19.955 79.7403 21.005C81.6003 22.025 83.0553 23.48 84.1053 25.37C85.1553 27.23 85.6803 29.405 85.6803 31.895C85.6803 34.385 85.1553 36.575 84.1053 38.465C83.0553 40.325 81.6003 41.78 79.7403 42.83C77.9103 43.85 75.8703 44.36 73.6203 44.36C70.2903 44.36 67.7553 43.31 66.0153 41.21V44H59.3103V10.61H66.3303V22.355C68.1003 20.405 70.5303 19.43 73.6203 19.43ZM72.4053 38.6C74.2053 38.6 75.6753 38 76.8153 36.8C77.9853 35.57 78.5703 33.935 78.5703 31.895C78.5703 29.855 77.9853 28.235 76.8153 27.035C75.6753 25.805 74.2053 25.19 72.4053 25.19C70.6053 25.19 69.1203 25.805 67.9503 27.035C66.8103 28.235 66.2403 29.855 66.2403 31.895C66.2403 33.935 66.8103 35.57 67.9503 36.8C69.1203 38 70.6053 38.6 72.4053 38.6ZM97.0846 22.985C97.9246 21.815 99.0496 20.93 100.46 20.33C101.9 19.73 103.55 19.43 105.41 19.43V25.91C104.63 25.85 104.105 25.82 103.835 25.82C101.825 25.82 100.25 26.39 99.1096 27.53C97.9696 28.64 97.3996 30.32 97.3996 32.57V44H90.3796V19.79H97.0846V22.985ZM119.217 19.43C122.967 19.43 125.847 20.33 127.857 22.13C129.867 23.9 130.872 26.585 130.872 30.185V44H124.302V40.985C122.982 43.235 120.522 44.36 116.922 44.36C115.062 44.36 113.442 44.045 112.062 43.415C110.712 42.785 109.677 41.915 108.957 40.805C108.237 39.695 107.877 38.435 107.877 37.025C107.877 34.775 108.717 33.005 110.397 31.715C112.107 30.425 114.732 29.78 118.272 29.78H123.852C123.852 28.25 123.387 27.08 122.457 26.27C121.527 25.43 120.132 25.01 118.272 25.01C116.982 25.01 115.707 25.22 114.447 25.64C113.217 26.03 112.167 26.57 111.297 27.26L108.777 22.355C110.097 21.425 111.672 20.705 113.502 20.195C115.362 19.685 117.267 19.43 119.217 19.43ZM118.677 39.635C119.877 39.635 120.942 39.365 121.872 38.825C122.802 38.255 123.462 37.43 123.852 36.35V33.875H119.037C116.157 33.875 114.717 34.82 114.717 36.71C114.717 37.61 115.062 38.33 115.752 38.87C116.472 39.38 117.447 39.635 118.677 39.635ZM143.93 22.985C144.77 21.815 145.895 20.93 147.305 20.33C148.745 19.73 150.395 19.43 152.255 19.43V25.91C151.475 25.85 150.95 25.82 150.68 25.82C148.67 25.82 147.095 26.39 145.955 27.53C144.815 28.64 144.245 30.32 144.245 32.57V44H137.225V19.79H143.93V22.985ZM181.294 19.79L170.359 45.485C169.249 48.275 167.869 50.24 166.219 51.38C164.599 52.52 162.634 53.09 160.324 53.09C159.064 53.09 157.819 52.895 156.589 52.505C155.359 52.115 154.354 51.575 153.574 50.885L156.139 45.89C156.679 46.37 157.294 46.745 157.984 47.015C158.704 47.285 159.409 47.42 160.099 47.42C161.059 47.42 161.839 47.18 162.439 46.7C163.039 46.25 163.579 45.485 164.059 44.405L164.149 44.18L153.664 19.79H160.909L167.704 36.215L174.544 19.79H181.294Z" fill="black"/>
<circle cx="13" cy="31" r="13" fill="#0090F8"/>
</svg>
